<svg display="none" xmlns="http://www.w3.org/2000/svg">
    <symbol id="linkedin" width="33" height="34" viewBox="0 0 33 34" fill="none">
        <rect x="0.659058" y="1.29492" width="31.8" height="31.8" stroke="#C6CBCD" />
        <path
            d="M22.8668 9.20508H9.41036C9.18731 9.20508 8.97339 9.29369 8.81567 9.45141C8.65794 9.60913 8.56934 9.82305 8.56934 10.0461V23.5025C8.56934 23.7256 8.65794 23.9395 8.81567 24.0972C8.97339 24.2549 9.18731 24.3435 9.41036 24.3435H22.8668C23.0898 24.3435 23.3037 24.2549 23.4615 24.0972C23.6192 23.9395 23.7078 23.7256 23.7078 23.5025V10.0461C23.7078 9.82305 23.6192 9.60913 23.4615 9.45141C23.3037 9.29369 23.0898 9.20508 22.8668 9.20508V9.20508ZM13.0596 22.1039H10.8124V14.8795H13.0596V22.1039ZM11.936 13.893C11.5907 13.893 11.2595 13.7558 11.0154 13.5116C10.7712 13.2675 10.6341 12.9363 10.6341 12.591C10.6341 12.2458 10.7712 11.9146 11.0154 11.6705C11.2595 11.4263 11.5907 11.2891 11.936 11.2891C12.2812 11.2891 12.6124 11.4263 12.8565 11.6705C13.1007 11.9146 13.2379 12.2458 13.2379 12.591C13.2379 12.9363 13.1007 13.2675 12.8565 13.5116C12.6124 13.7558 12.2812 13.893 11.936 13.893V13.893ZM21.469 22.1039H19.2243V18.5909C19.2243 17.7533 19.2092 16.6759 18.0569 16.6759C16.8879 16.6759 16.7105 17.5893 16.7105 18.5321V22.1047H14.4674V14.8803H16.6205V15.8677H16.6516C16.9502 15.3 17.6835 14.7012 18.7743 14.7012C21.0485 14.7012 21.4681 16.1965 21.4681 18.1427V22.1039H21.469Z"
            fill="#C6CBCD" />
    </symbol>

    <symbol id="twitter"  height="34" viewBox="0 0 33 34" fill="none">
        <rect x="0.653931" y="1.29492" width="31.8" height="31.8" stroke="#C6CBCD" />
        <path
            d="M22.553 13.3917C22.5639 13.5389 22.5639 13.6853 22.5639 13.8316C22.5639 18.3101 19.1552 23.4706 12.9257 23.4706C11.0065 23.4706 9.22353 22.9147 7.72314 21.9492C7.99564 21.9803 8.25804 21.9912 8.54146 21.9912C10.0662 21.9949 11.5478 21.485 12.7474 20.5438C12.0405 20.531 11.3552 20.2978 10.7872 19.8767C10.2192 19.4555 9.79693 18.8676 9.57929 18.1948C9.7887 18.226 9.99896 18.247 10.2193 18.247C10.5229 18.247 10.8282 18.2049 11.1116 18.1318C10.3444 17.9769 9.65454 17.561 9.1593 16.9549C8.66405 16.3488 8.39402 15.5899 8.39512 14.8072V14.7651C8.84675 15.0166 9.37071 15.1739 9.92579 15.1949C9.46078 14.8859 9.07948 14.4666 8.81592 13.9744C8.55236 13.4822 8.41473 12.9324 8.41531 12.3741C8.41531 11.745 8.58267 11.1681 8.87619 10.6651C9.72743 11.7122 10.7891 12.5689 11.9925 13.1795C13.1958 13.7902 14.5141 14.1413 15.8618 14.2101C15.8096 13.9578 15.7776 13.6962 15.7776 13.4338C15.7774 12.9889 15.8649 12.5482 16.0351 12.1371C16.2052 11.726 16.4548 11.3525 16.7694 11.0379C17.084 10.7233 17.4575 10.4737 17.8686 10.3036C18.2797 10.1334 18.7204 10.0459 19.1653 10.0461C20.1409 10.0461 21.0214 10.4549 21.6404 11.1159C22.3989 10.9693 23.1261 10.6924 23.7901 10.2976C23.5373 11.0804 23.0077 11.7443 22.3006 12.1647C22.9733 12.088 23.6307 11.9111 24.251 11.6399C23.7877 12.3153 23.2136 12.9076 22.553 13.3917V13.3917Z"
            fill="#C6CBCD" />
    </symbol>

    <symbol id="facebook" width="34" height="34" viewBox="0 0 34 34" fill="none">
        <rect x="0.807739" y="1.29492" width="31.8" height="31.8" stroke="#C6CBCD" />
        <path
            d="M17.4621 24.341V17.448H19.7876L20.1332 14.7491H17.4621V13.0301C17.4621 12.2513 17.6791 11.7181 18.7969 11.7181H20.2131V9.31191C19.524 9.23806 18.8314 9.2024 18.1383 9.2051C16.0829 9.2051 14.6716 10.4599 14.6716 12.7635V14.7441H12.3613V17.4429H14.6767V24.341H17.4621Z"
            fill="#C6CBCD" />
    </symbol>

    <symbol id="burger" width="55" height="56" viewBox="0 0 55 56" fill="none">
        <path d="M16 19H40V22H16V19ZM16 26.5H40V29.5H16V26.5ZM16 34H40V37H16V34Z" fill="white"/>
    </symbol>

</svg>